<?xml version="1.0" encoding="iso-8859-1"?>
<!-- Generator: Adobe Illustrator 19.0.0, SVG Export Plug-In . SVG Version: 6.00 Build 0)  -->
<svg version="1.1" id="Layer_1" xmlns="http://www.w3.org/2000/svg" xmlns:xlink="http://www.w3.org/1999/xlink" x="0px" y="0px"
	 viewBox="0 0 395.447 395.447" style="enable-background:new 0 0 395.447 395.447;" xml:space="preserve">
<g>
	<g>
		<g>
			<path d="M133.002,0C111.47,0,90.293,3.444,70.055,10.236c-0.036,0.013-0.073,0.025-0.11,0.037l-0.138,0.047
				c-3.917,1.334-6.014,5.588-4.687,9.506c0.912,2.693,3.204,4.528,5.821,4.985c43.142,14.762,79.002,44.925,101.048,85.025
				c1.996,3.629,6.556,4.955,10.186,2.959c3.63-1.996,4.954-6.556,2.959-10.186c-20.33-36.98-51.521-66.149-89.2-83.847
				C108.067,16.261,120.468,15,133.002,15c100.754,0,182.723,81.97,182.723,182.724s-81.97,182.724-182.724,182.724
				c-12.534,0-24.935-1.261-37.069-3.762c68.741-32.27,113.539-101.593,113.539-178.962c0-10.817-0.881-21.659-2.619-32.227
				c-0.672-4.087-4.527-6.855-8.617-6.184c-4.088,0.672-6.856,4.53-6.184,8.617c1.606,9.766,2.42,19.79,2.42,29.793
				c0,78.281-49.611,147.644-123.564,172.921c-2.595,0.465-4.866,2.287-5.779,4.957c-1.337,3.907,0.736,8.159,4.635,9.513
				l0.128,0.044c0.068,0.023,0.138,0.046,0.207,0.068c20.224,6.783,41.386,10.221,62.904,10.221
				c109.025,0,197.724-88.697,197.724-197.723S242.027,0,133.002,0z"/>
			<path d="M192.178,144.813c3.619,0,6.746-2.683,7.383-6.221c0.519-2.885-0.785-5.899-3.223-7.519
				c-2.782-1.849-6.527-1.612-9.062,0.559c-2.273,1.947-3.155,5.192-2.219,8.029C186.057,142.695,188.977,144.813,192.178,144.813z"
				/>
		</g>
	</g>
</g>
<g>
</g>
<g>
</g>
<g>
</g>
<g>
</g>
<g>
</g>
<g>
</g>
<g>
</g>
<g>
</g>
<g>
</g>
<g>
</g>
<g>
</g>
<g>
</g>
<g>
</g>
<g>
</g>
<g>
</g>
</svg>
