<?xml version="1.0" encoding="iso-8859-1"?>
<!-- Generator: Adobe Illustrator 19.0.0, SVG Export Plug-In . SVG Version: 6.00 Build 0)  -->
<svg version="1.1" id="Layer_1" xmlns="http://www.w3.org/2000/svg" xmlns:xlink="http://www.w3.org/1999/xlink" x="0px" y="0px"
	 viewBox="0 0 464.043 464.043" style="enable-background:new 0 0 464.043 464.043;" xml:space="preserve">
<g>
	<g>
		<g>
			<path d="M239.521,112.503V99.589c0-4.142-3.357-7.5-7.5-7.5s-7.5,3.358-7.5,7.5v12.914
				c-79.608,3.922-143.168,69.917-143.168,150.481c0,0.005,0,0.01,0,0.014c0,0.001,0,0.002,0,0.003c0,0.004,0,0.008,0,0.012
				c0,0,0,0.001,0,0.002c0.017,4.128,3.368,7.469,7.5,7.469c1.211,0,2.354-0.287,3.367-0.797
				c2.582-1.208,37.064-16.546,66.564,10.489c2.867,2.627,7.268,2.627,10.135,0c13.447-12.323,33.333-19.914,55.394-21.357v176.828
				c0,15.657,12.738,28.396,28.396,28.396c15.658,0,28.396-12.738,28.396-28.396c0-4.142-3.357-7.5-7.5-7.5s-7.5,3.358-7.5,7.5
				c0,7.386-6.01,13.396-13.396,13.396c-7.386,0-13.396-6.009-13.396-13.396V258.795c22.227,1.374,42.278,8.981,55.81,21.381
				c1.434,1.314,3.25,1.971,5.067,1.971c1.816,0,3.634-0.657,5.067-1.971c30.015-27.506,65.188-11.148,66.648-10.449
				c2.323,1.132,5.067,0.987,7.26-0.384c2.191-1.371,3.523-3.774,3.523-6.359C382.688,182.42,319.128,116.425,239.521,112.503z
				 M156.83,260.012c-11.515-7.024-24.493-10.677-38.253-10.677c-0.639,0-1.28,0.008-1.923,0.024
				c-7.762,0.19-14.608,1.496-19.884,2.917c4.701-59.939,48.528-109.054,105.887-121.758c-7.314,8.605-14.511,20.03-21.126,33.819
				C167.63,193.312,158.889,227.455,156.83,260.012z M307.215,259.945c-0.578-9.25-1.684-18.63-3.33-28.034
				c-0.713-4.08-4.602-6.81-8.68-6.096c-4.08,0.714-6.81,4.6-6.096,8.68c1.458,8.337,2.471,16.647,3.038,24.846
				c-16.623-10.144-37.727-15.793-60.128-15.793c-22.388,0-43.483,5.644-60.102,15.777c2.113-30.17,10.271-61.682,23.137-88.501
				c13.703-28.564,28.968-43.509,36.965-43.509c8.719,0,28.997,19.718,44.833,62.041c1.451,3.879,5.775,5.847,9.652,4.396
				c3.88-1.452,5.848-5.773,4.396-9.653c-7.429-19.853-17.954-39.797-29.634-53.609c57.407,12.663,101.285,61.795,106,121.762
				C353.848,248.61,330.314,245.736,307.215,259.945z"/>
			<path d="M298.225,206.96c-0.088-0.212-0.056-0.132-0.015-0.029c-1.155-2.753-3.922-4.604-6.914-4.603
				c-3.143,0-5.991,2.029-7.056,4.974c-1.04,2.876-0.159,6.208,2.158,8.2c2.575,2.214,6.39,2.409,9.18,0.475
				c2.869-1.989,3.929-5.76,2.656-8.989C298.274,207.088,298.306,207.162,298.225,206.96z"/>
			<path d="M88.852,42.496c4.143,0,7.5-3.358,7.5-7.5V7.5c0-4.142-3.357-7.5-7.5-7.5s-7.5,3.358-7.5,7.5v27.496
				C81.352,39.138,84.709,42.496,88.852,42.496z"/>
			<path d="M88.852,174.22c4.143,0,7.5-3.358,7.5-7.5V60.994c0-4.142-3.357-7.5-7.5-7.5s-7.5,3.358-7.5,7.5V166.72
				C81.352,170.862,84.709,174.22,88.852,174.22z"/>
			<path d="M124.642,131.79c4.143,0,7.5-3.358,7.5-7.5V7.5c0-4.142-3.357-7.5-7.5-7.5s-7.5,3.358-7.5,7.5v116.79
				C117.142,128.432,120.499,131.79,124.642,131.79z"/>
			<path d="M160.441,71.119c4.143,0,7.5-3.358,7.5-7.5V7.5c0-4.142-3.357-7.5-7.5-7.5s-7.5,3.358-7.5,7.5v56.119
				C152.941,67.761,156.299,71.119,160.441,71.119z"/>
			<path d="M160.441,108.56c4.143,0,7.5-3.358,7.5-7.5V86.817c0-4.142-3.357-7.5-7.5-7.5s-7.5,3.358-7.5,7.5v14.243
				C152.941,105.202,156.299,108.56,160.441,108.56z"/>
			<path d="M196.231,96.22c4.143,0,7.5-3.358,7.5-7.5V7.5c0-4.142-3.357-7.5-7.5-7.5s-7.5,3.358-7.5,7.5v81.22
				C188.731,92.862,192.089,96.22,196.231,96.22z"/>
			<path d="M232.021,72.895c4.143,0,7.5-3.358,7.5-7.5V7.5c0-4.142-3.357-7.5-7.5-7.5s-7.5,3.358-7.5,7.5v57.895
				C224.521,69.537,227.879,72.895,232.021,72.895z"/>
			<path d="M267.812,23.494c4.143,0,7.5-3.358,7.5-7.5V7.5c0-4.142-3.357-7.5-7.5-7.5s-7.5,3.358-7.5,7.5v8.494
				C260.312,20.136,263.669,23.494,267.812,23.494z"/>
			<path d="M267.812,96.22c4.143,0,7.5-3.358,7.5-7.5V39.494c0-4.142-3.357-7.5-7.5-7.5s-7.5,3.358-7.5,7.5V88.72
				C260.312,92.862,263.669,96.22,267.812,96.22z"/>
			<path d="M303.602,108.56c4.143,0,7.5-3.358,7.5-7.5V7.5c0-4.142-3.357-7.5-7.5-7.5s-7.5,3.358-7.5,7.5v93.56
				C296.102,105.202,299.459,108.56,303.602,108.56z"/>
			<path d="M339.401,99.994c4.143,0,7.5-3.358,7.5-7.5V7.5c0-4.142-3.357-7.5-7.5-7.5s-7.5,3.358-7.5,7.5v84.994
				C331.901,96.636,335.259,99.994,339.401,99.994z"/>
			<path d="M339.401,131.79c4.143,0,7.5-3.358,7.5-7.5v-9.296c0-4.142-3.357-7.5-7.5-7.5s-7.5,3.358-7.5,7.5v9.296
				C331.901,128.432,335.259,131.79,339.401,131.79z"/>
			<path d="M375.191,0c-4.143,0-7.5,3.358-7.5,7.5v159.22c0,4.142,3.357,7.5,7.5,7.5s7.5-3.358,7.5-7.5V7.5
				C382.691,3.358,379.334,0,375.191,0z"/>
		</g>
	</g>
</g>
<g>
</g>
<g>
</g>
<g>
</g>
<g>
</g>
<g>
</g>
<g>
</g>
<g>
</g>
<g>
</g>
<g>
</g>
<g>
</g>
<g>
</g>
<g>
</g>
<g>
</g>
<g>
</g>
<g>
</g>
</svg>
