<?xml version="1.0" encoding="iso-8859-1"?>
<!-- Generator: Adobe Illustrator 19.0.0, SVG Export Plug-In . SVG Version: 6.00 Build 0)  -->
<svg version="1.1" id="Layer_1" xmlns="http://www.w3.org/2000/svg" xmlns:xlink="http://www.w3.org/1999/xlink" x="0px" y="0px"
	 viewBox="0 0 421.017 421.017" style="enable-background:new 0 0 421.017 421.017;" xml:space="preserve">
<g>
	<g>
		<g>
			<path d="M362.302,128.982c-0.514-36.405-30.292-65.862-66.823-65.862c-8.246,0-16.421,1.535-24.064,4.486
				c-5.888-17.848-16.908-33.866-31.645-45.782C222.365,7.751,200.431,0,178.01,0c-52.791,0-95.999,41.819-98.23,94.071
				c-16.799,4.979-31.921,15.037-43.057,28.742c-12.591,15.496-19.524,35.045-19.524,55.047c0,48.176,39.189,87.37,87.36,87.37
				h65.24c4.143,0,7.5-3.358,7.5-7.5c0-4.142-3.357-7.5-7.5-7.5h-65.24c-39.899,0-72.36-32.465-72.36-72.37
				c0-16.567,5.741-32.758,16.166-45.588c10.28-12.653,24.652-21.552,40.469-25.06c3.489-0.774,5.948-3.903,5.874-7.477
				c-0.01-0.469-0.019-0.938-0.019-1.415c0-45.943,37.377-83.32,83.32-83.32c19.276,0,37.371,6.393,52.329,18.488
				c14.535,11.754,24.805,28.205,28.916,46.322c0.524,2.307,2.105,4.232,4.267,5.193c2.161,0.96,4.648,0.848,6.714-0.31
				c7.676-4.3,16.405-6.573,25.244-6.573c28.579,0,51.83,23.246,51.83,51.82c0,1.044-0.043,2.176-0.133,3.462
				c-0.229,3.318,1.754,6.392,4.872,7.549c21.993,8.166,36.771,29.42,36.771,52.889c0,31.093-25.296,56.39-56.39,56.39h-36.596
				l24.93-42.644c1.356-2.319,1.368-5.187,0.03-7.518c-1.337-2.331-3.818-3.768-6.505-3.768h-81.056
				c-3.218,0-6.077,2.053-7.106,5.102L191.387,304.33c-0.772,2.289-0.395,4.81,1.014,6.772c1.409,1.962,3.677,3.126,6.093,3.126
				h27.79l-36.104,96.664c-1.278,3.422,0.096,7.268,3.254,9.106c1.18,0.687,2.479,1.019,3.769,1.019c2.16,0,4.287-0.933,5.756-2.688
				l105.502-126.087c1.869-2.234,2.276-5.348,1.043-7.987c-1.232-2.639-3.882-4.326-6.795-4.326h-24.24l8.594-14.7h45.365
				c39.364,0,71.39-32.025,71.39-71.39C403.819,165.96,387.344,140.548,362.302,128.982z M258.924,283.645
				c-1.356,2.319-1.368,5.187-0.03,7.518c1.337,2.331,3.818,3.768,6.505,3.768h21.255l-67.101,80.193l24.565-65.771
				c0.859-2.303,0.537-4.881-0.865-6.9c-1.401-2.02-3.703-3.224-6.161-3.224h-28.15l29.676-87.928h62.599L258.924,283.645z"/>
			<path d="M197.602,264.088c4.875-4.882,0.806-13.395-6.004-12.77c-3.27,0.3-6.006,2.789-6.656,6
				c-0.633,3.128,0.884,6.414,3.654,7.979C191.492,266.934,195.244,266.446,197.602,264.088z"/>
			<path d="M197.602,264.088C196.213,265.478,197.952,263.738,197.602,264.088L197.602,264.088z"/>
		</g>
	</g>
</g>
<g>
</g>
<g>
</g>
<g>
</g>
<g>
</g>
<g>
</g>
<g>
</g>
<g>
</g>
<g>
</g>
<g>
</g>
<g>
</g>
<g>
</g>
<g>
</g>
<g>
</g>
<g>
</g>
<g>
</g>
</svg>
