<?xml version="1.0" encoding="iso-8859-1"?>
<!-- Generator: Adobe Illustrator 19.0.0, SVG Export Plug-In . SVG Version: 6.00 Build 0)  -->
<svg version="1.1" id="Layer_1" xmlns="http://www.w3.org/2000/svg" xmlns:xlink="http://www.w3.org/1999/xlink" x="0px" y="0px"
	 viewBox="0 0 438.2 438.2" style="enable-background:new 0 0 438.2 438.2;" xml:space="preserve">
<g>
	<g>
		<g>
			<path d="M219.097,103.283c-63.859,0-115.813,51.953-115.813,115.813c0,63.859,51.954,115.813,115.813,115.813
				S334.91,282.955,334.91,219.096S282.957,103.283,219.097,103.283z M219.097,319.908c-55.588,0-100.813-45.224-100.813-100.813
				c0-55.588,45.225-100.813,100.813-100.813c55.588,0,100.813,45.226,100.813,100.814
				C319.91,274.684,274.686,319.908,219.097,319.908z"/>
			<path d="M219.1,348.358c-4.142,0-7.5,3.358-7.5,7.5V430.7c0,4.142,3.358,7.5,7.5,7.5c4.142,0,7.5-3.358,7.5-7.5v-74.842
				C226.6,351.716,223.242,348.358,219.1,348.358z"/>
			<path d="M219.1,89.842c4.142,0,7.5-3.358,7.5-7.5V7.5c0-4.142-3.358-7.5-7.5-7.5c-4.142,0-7.5,3.358-7.5,7.5v74.842
				C211.6,86.484,214.958,89.842,219.1,89.842z"/>
			<path d="M117.094,310.499L64.173,363.42c-2.929,2.929-2.929,7.677,0,10.606c1.464,1.465,3.384,2.197,5.303,2.197
				s3.839-0.732,5.303-2.197l52.921-52.921c2.929-2.929,2.929-7.677,0-10.606C124.773,307.57,120.024,307.57,117.094,310.499z"/>
			<path d="M315.802,129.897c1.919,0,3.839-0.732,5.303-2.197l52.921-52.921c2.929-2.929,2.929-7.677,0-10.606
				c-2.929-2.929-7.678-2.929-10.606,0l-52.921,52.921c-2.929,2.929-2.929,7.677,0,10.606
				C311.964,129.165,313.883,129.897,315.802,129.897z"/>
			<path d="M89.842,219.1c0-4.142-3.358-7.5-7.5-7.5H7.5c-4.142,0-7.5,3.358-7.5,7.5c0,4.142,3.358,7.5,7.5,7.5h74.842
				C86.484,226.6,89.842,223.242,89.842,219.1z"/>
			<path d="M430.7,211.6h-74.842c-4.142,0-7.5,3.358-7.5,7.5c0,4.142,3.358,7.5,7.5,7.5H430.7c4.142,0,7.5-3.358,7.5-7.5
				C438.2,214.958,434.842,211.6,430.7,211.6z"/>
			<path d="M117.094,127.701c1.464,1.465,3.384,2.197,5.303,2.197c1.919,0,3.839-0.732,5.303-2.197
				c2.929-2.929,2.929-7.677,0-10.606L74.779,64.173c-2.929-2.929-7.678-2.929-10.606,0c-2.929,2.929-2.929,7.677,0,10.606
				L117.094,127.701z"/>
			<path d="M321.106,310.499c-2.929-2.929-7.678-2.929-10.606,0c-2.929,2.929-2.929,7.678,0,10.606l52.921,52.921
				c1.464,1.465,3.384,2.197,5.303,2.197s3.839-0.732,5.303-2.197c2.929-2.929,2.929-7.678,0-10.606L321.106,310.499z"/>
			<path d="M278.377,342.611c-1.585-3.827-5.972-5.644-9.799-4.06c-3.827,1.585-5.645,5.972-4.06,9.799l7.719,18.639
				c1.196,2.889,3.989,4.633,6.932,4.633c0.956,0,1.928-0.184,2.867-0.573c3.827-1.585,5.645-5.972,4.06-9.799L278.377,342.611z"/>
			<path d="M159.823,95.589c1.196,2.889,3.989,4.632,6.932,4.632c0.956,0,1.928-0.184,2.867-0.573
				c3.827-1.585,5.645-5.972,4.06-9.799l-7.719-18.639c-1.585-3.827-5.971-5.645-9.799-4.06c-3.827,1.585-5.645,5.972-4.06,9.799
				L159.823,95.589z"/>
			<path d="M169.622,338.551c-3.825-1.584-8.214,0.233-9.799,4.06l-7.719,18.639c-1.585,3.827,0.233,8.214,4.06,9.799
				c0.938,0.389,1.91,0.573,2.867,0.573c2.943,0,5.736-1.744,6.932-4.633l7.719-18.639
				C175.266,344.523,173.448,340.136,169.622,338.551z"/>
			<path d="M268.578,99.649c0.938,0.389,1.91,0.573,2.867,0.573c2.943,0,5.736-1.744,6.932-4.632l7.719-18.639
				c1.585-3.827-0.233-8.214-4.06-9.799c-3.825-1.584-8.215,0.233-9.799,4.06l-7.719,18.639
				C262.934,93.677,264.752,98.064,268.578,99.649z"/>
			<path d="M89.85,264.519l-18.639,7.719c-3.827,1.585-5.645,5.972-4.06,9.799c1.196,2.889,3.989,4.632,6.932,4.632
				c0.956,0,1.928-0.184,2.867-0.573l18.639-7.719c3.827-1.585,5.645-5.972,4.06-9.799C98.064,264.751,93.678,262.934,89.85,264.519
				z"/>
			<path d="M371.049,156.164c-1.585-3.827-5.972-5.645-9.799-4.06l-18.639,7.719c-3.827,1.585-5.645,5.972-4.06,9.799
				c1.196,2.889,3.989,4.632,6.932,4.632c0.956,0,1.928-0.184,2.867-0.573l18.639-7.719
				C370.816,164.378,372.634,159.991,371.049,156.164z"/>
			<path d="M95.589,159.823l-18.639-7.719c-3.825-1.583-8.214,0.233-9.799,4.06c-1.585,3.827,0.233,8.214,4.06,9.799l18.639,7.719
				c0.938,0.388,1.91,0.573,2.867,0.573c2.943,0,5.736-1.744,6.932-4.632C101.234,165.794,99.416,161.407,95.589,159.823z"/>
			<path d="M338.551,268.578c-1.585,3.827,0.233,8.214,4.06,9.799l18.639,7.719c0.938,0.388,1.91,0.573,2.867,0.573
				c2.943,0,5.736-1.744,6.932-4.632c1.585-3.827-0.233-8.214-4.06-9.799l-18.639-7.719
				C344.525,262.935,340.136,264.751,338.551,268.578z"/>
		</g>
	</g>
</g>
<g>
</g>
<g>
</g>
<g>
</g>
<g>
</g>
<g>
</g>
<g>
</g>
<g>
</g>
<g>
</g>
<g>
</g>
<g>
</g>
<g>
</g>
<g>
</g>
<g>
</g>
<g>
</g>
<g>
</g>
</svg>
